<svg xmlns="http://www.w3.org/2000/svg" version="1.1" xmlns:xlink="http://www.w3.org/1999/xlink" xmlns:svgjs="http://svgjs.dev/svgjs" width="100%" height="100%" viewBox="0 0 1000 600"><rect width="1000" height="600" x="0" y="0" fill="#f0b706"/><g><circle r="166.66666666666666" cx="405.89736429850257" cy="428.1196159250211" fill="#2c2c2c" transform="matrix(0.5225082824021043,0,0,0.5225082824021043,0,76.30398533794727)"/><path d="M300.8672312061017 358.54769269858264L326.5499240742222 354.0243221347258L324.5646669934183 413.00404832012583L370.7030467447581 354.376139845248L389.17347654717355 366.68975971352495L347.5584673596906 414.9893054009297L391.6864601937607 467.28449508640796L368.5418808086932 481.75928089074984L324.38875813815724 419.33676710952545L324.03694042763505 432.7309699458349L326.1981063637 479.774023809946L300.8672312061017 479.774023809946L303.0283971421666 435.79680999467115L300.8672312061017 358.54769269858264ZM456.1193608922548 353.11964802195445L456.1193608922548 353.11964802195445Q477.45459205177957 353.11964802195445 491.3011319444747 369.4037820518391Q505.1476718371698 385.6879160817237 505.1476718371698 410.8428823840609L505.1476718371698 410.8428823840609Q505.1476718371698 440.1442717032669 487.05418958174243 461.50463269925757L487.05418958174243 461.50463269925757L510.9275342243202 489.90134790569215L493.00996082415395 503.1196418867405L472.2024562304125 474.1700702780567Q459.5370186516133 481.75928089074984 445.4391803942595 481.75928089074984L445.4391803942595 481.75928089074984Q424.631675800518 481.75928089074984 410.5087077066983 465.0228098044795Q396.4108694493445 448.2863387182092 396.4108694493445 423.68422881812114L396.4108694493445 423.68422881812114Q396.4108694493445 392.92530898389464 413.22273004501244 373.02247850292457Q430.05972047714624 353.11964802195445 456.1193608922548 353.11964802195445ZM480.54556193708174 420.9702064798071L480.54556193708174 420.9702064798071Q480.54556193708174 375.1836444389895 450.49027752389964 375.1836444389895L450.49027752389964 375.1836444389895Q436.74425697706795 375.1836444389895 428.8786181632503 385.4114878805991Q421.01297934943256 395.63933132220876 421.01297934943256 415.99449885956454Q421.01297934943256 436.3496663969203 429.43147456549946 449.46744103210517Q437.8248399451005 462.58521566728996 452.5006644411693 462.58521566728996L452.5006644411693 462.58521566728996Q457.92870911779755 462.58521566728996 462.6279885369155 460.42404973122507L462.6279885369155 460.42404973122507L441.09171868566375 430.19285646278183L453.5812474092018 421.52306288205625L475.2934261157146 447.38166460543783Q480.54556193708174 436.3496663969203 480.54556193708174 420.9702064798071Z " fill="#f0b706" transform="matrix(0.5225082824021043,0,0,0.5225082824021043,0,76.30398533794727)"/><path d="M655.897382620439 370.39894651553743L679.4747446497784 366.2463778606636L677.6522284068059 420.3912591550464L720.0084286865191 366.56935542270935L736.9647506939207 377.87357009431037L698.7611190690812 422.2137753980188L739.2717332799616 470.2220830135325L718.0244236625238 483.51030270912884L677.490739625783 426.2048552718698L677.1677620637372 438.50107245546843L679.1517670877325 481.6877864661564L655.897382620439 481.6877864661564L657.8813876444343 441.31559121043847L655.897382620439 370.39894651553743ZM778.1443898547528 464.75453428461526L778.1443898547528 464.75453428461526Q782.9659834595786 464.75453428461526 788.272043407473 462.262993091691Q793.6011731812278 459.77145189876666 796.5771807172206 457.2799107058424L796.5771807172206 457.2799107058424L799.5762580790739 454.78836951291805L807.2123704388697 464.08550933466336Q805.5513429769202 466.90002808963345 802.0677992719983 470.5681304014387Q798.5842555670763 474.2131628873835 795.0084325587128 476.7969833837494Q791.4326095503492 479.35773405425493 785.5498039559445 481.4340183816919Q779.6439285356795 483.51030270912884 773.3227962499271 483.51030270912884L773.3227962499271 483.51030270912884Q759.8730877733079 483.51030270912884 751.4064616825374 473.29036985296705Q742.9398355917668 463.09350682266574 742.9398355917668 446.967698546239L742.9398355917668 446.967698546239Q742.9398355917668 426.7123914407988 754.7285166064365 411.41709689534684Q766.5171976211061 396.14487217575527 782.2969585096267 396.14487217575527L782.2969585096267 396.14487217575527Q794.4316869122025 396.14487217575527 801.1450062375819 402.95047080457624Q807.8813953888217 409.7560694333973 807.8813953888217 422.05228661699596L807.8813953888217 422.05228661699596Q807.8813953888217 429.365421414746 805.3898541958973 438.66256123649134L805.3898541958973 438.66256123649134L802.0677992719983 442.1461049414132L760.5421127232598 445.9756960342413Q763.3566314782299 464.75453428461526 778.1443898547528 464.75453428461526ZM778.1443898547528 413.26268296417965L778.1443898547528 413.26268296417965Q770.8312550570027 413.26268296417965 765.8481726711542 419.14548855858425Q760.8650902853057 425.0513639788493 760.0345765543308 434.18701501957173L760.0345765543308 434.18701501957173L788.272043407473 430.7034713146498Q788.7795795764019 426.87388022182165 788.7795795764019 424.3823390288974L788.7795795764019 424.3823390288974Q788.7795795764019 413.26268296417965 778.1443898547528 413.26268296417965ZM820.500590134466 401.4509321236496L820.500590134466 401.4509321236496L840.5944084588833 397.1368746877529Q842.09394713981 409.94062804028056 842.601483308739 421.38326166704405L842.601483308739 421.38326166704405Q857.7122192473078 397.96738841872764 871.000438942904 397.96738841872764L871.000438942904 397.96738841872764L869.1779226999316 423.8748028599683Q859.5347354902802 423.8748028599683 853.9749074579213 425.6281096253595Q848.4150794255625 427.3814163907507 842.601483308739 432.5259875576222L842.601483308739 432.5259875576222L842.601483308739 438.50107245546843L844.4239995517115 477.53521781128256L822.1616175964156 481.6877864661564L824.1686924462713 441.31559121043847Q823.4996674963194 419.076279081003 820.500590134466 401.4509321236496ZM903.5519632319429 433.8409676316656L909.7116067366725 460.9249431917872L911.8571005416906 460.9249431917872L917.3477190964683 438.17809489342267L926.3218813561679 397.1368746877529L946.9001660236537 399.6284158806772L934.4424600590322 440.83112486736985L923.9918289442663 479.70378144216113L895.5928733101014 482.1953226350854L885.788197319427 441.8231273793675L873.8149576978741 401.4509321236496L896.4233870410761 397.2983634687758L903.5519632319429 433.8409676316656ZM957.881403133209 401.2894433426267L980.1207152626445 397.1368746877529L978.1367102386492 438.50107245546843L979.9592264816216 477.53521781128256L957.6968445263257 481.6877864661564L959.7039193761813 441.31559121043847L957.881403133209 401.2894433426267ZM956.704842014328 372.7982084050201Q956.704842014328 367.23838037266125 961.0188994502248 362.8320436333229Q965.3560267119819 358.4487767198449 970.985064221922 358.4487767198449Q976.6371715577225 358.4487767198449 979.6362489195759 361.51706355927945Q982.6122564555687 364.58535039871407 982.6122564555687 370.72192407758314Q982.6122564555687 376.8815675823127 978.3904783231137 381.287904321651Q974.1456303647982 385.671171235129 968.5858023324394 385.671171235129Q963.0259743000805 385.671171235129 959.8654081572043 382.02613874918416Q956.704842014328 378.38110626323936 956.704842014328 372.7982084050201ZM1046.561813740626 439.65456374848895Q1046.561813740626 428.21193012172546 1044.5778087166304 424.3823390288974Q1042.5938036926354 420.5527479360693 1035.2806688948854 420.5527479360693Q1027.9675340971353 420.5527479360693 1018.67039427539 426.36634405289266L1018.67039427539 426.36634405289266L1018.67039427539 438.50107245546843L1020.4929105183625 477.53521781128256L998.2305285630665 481.6877864661564L1000.2376034129222 441.31559121043847Q999.5685784629703 419.076279081003 996.569501101117 401.4509321236496L996.569501101117 401.4509321236496L1016.6633194255343 397.1368746877529Q1017.8398805444152 406.7800618974044 1018.3243468874838 415.91571293812683L1018.3243468874838 415.91571293812683Q1020.8158880804082 412.59365801422774 1023.9764542232843 409.3408125679099Q1027.1370203661604 406.1110369474525 1033.9426189949813 402.05074759602024Q1040.7482176238027 397.96738841872764 1048.3151205060171 397.96738841872764Q1055.8820233882316 397.96738841872764 1061.0265945551032 403.87326383899267Q1066.1711657219748 409.7560694333973 1066.1711657219748 419.90679281197777L1066.1711657219748 419.90679281197777L1065.179163209977 438.50107245546843L1067.0016794529492 478.3657315422573L1044.5778087166304 482.51830019713117L1046.561813740626 439.65456374848895ZM1161.0112198341212 365.4158641296888L1161.0112198341212 365.4158641296888Q1180.6205718154697 365.4158641296888 1193.3320458645558 380.36511128723464Q1206.0204500877815 395.3143584447805 1206.0204500877815 418.4072541310511L1206.0204500877815 418.4072541310511Q1206.0204500877815 445.30667108428946 1189.410175468286 464.91602306563817L1189.410175468286 464.91602306563817L1211.3495798615363 490.9849262879017L1194.9007940230638 503.1196546904775L1175.798978210644 476.54321529928495Q1164.1717859769974 483.51030270912884 1151.206543843447 483.51030270912884L1151.206543843447 483.51030270912884Q1132.1047280310272 483.51030270912884 1119.162555723337 468.1457986860956Q1106.1973135897865 452.78129466306234 1106.1973135897865 430.19593514572074L1106.1973135897865 430.19593514572074Q1106.1973135897865 401.95846829257863 1121.654096916261 383.68716621113373Q1137.0878104168755 365.4158641296888 1161.0112198341212 365.4158641296888ZM1183.4350905704398 427.70439395279647L1183.4350905704398 427.70439395279647Q1183.4350905704398 385.671171235129 1155.8666486672496 385.671171235129L1155.8666486672496 385.671171235129Q1143.247453921605 385.671171235129 1136.026598427297 395.060590360316Q1128.7826731071282 404.45000948550296 1128.7826731071282 423.13656843243524Q1128.7826731071282 441.8231273793675 1136.5110647703655 453.8655764785017Q1144.2394564336028 465.9080255776358 1157.6891649102222 465.9080255776358L1157.6891649102222 465.9080255776358Q1162.6722472960705 465.9080255776358 1166.9863047319673 463.9240205536405L1166.9863047319673 463.9240205536405L1147.238533795456 436.171020043567L1158.6811674222195 428.21193012172546L1178.613496965614 451.9507809320876Q1183.4350905704398 441.8231273793675 1183.4350905704398 427.70439395279647ZM1243.7396153695522 481.6877864661564L1243.7396153695522 481.6877864661564Q1234.7654531098526 481.6877864661564 1229.2056250774938 475.7819110458914Q1223.645797045135 469.8991054514868 1223.645797045135 460.2559182418353L1223.645797045135 460.2559182418353L1224.6377995571324 441.1541024294156L1222.81528331416 401.2894433426267L1245.0545954435956 397.1368746877529L1242.9091016385773 447.6367234961909Q1242.9091016385773 454.78836951291805 1245.4698523090829 458.11042443681714Q1248.053672805449 461.43247936071623 1253.7057801412493 461.43247936071623Q1259.3578874770496 461.43247936071623 1269.3240522487472 455.78037202491566L1269.3240522487472 455.78037202491566L1269.3240522487472 445.81420725321846L1267.4784661799144 402.1199570736015L1289.9023369162333 397.96738841872764L1287.9183318922378 439.4930749674661L1288.0798206732607 453.12734205096854Q1288.0798206732607 463.7394619467572 1293.5704392280381 474.53614044942924L1293.5704392280381 474.53614044942924L1276.291139658591 482.1953226350854Q1270.8005211038135 471.39864413241344 1269.647029810793 464.91602306563817L1269.647029810793 464.91602306563817Q1254.697782653247 481.6877864661564 1243.7396153695522 481.6877864661564ZM1338.4181807006757 464.75453428461526L1338.4181807006757 464.75453428461526Q1343.2397743055017 464.75453428461526 1348.5458342533962 462.262993091691Q1353.8518942012902 459.77145189876666 1356.8509715631435 457.2799107058424L1356.8509715631435 457.2799107058424L1359.8500489249968 454.78836951291805L1367.4861612847926 464.08550933466336Q1365.8251338228433 466.90002808963345 1362.3415901179214 470.5681304014387Q1358.834976587139 474.2131628873835 1355.2822234046357 476.7969833837494Q1351.7064003962719 479.35773405425493 1345.8005249760072 481.4340183816919Q1339.9177193816026 483.51030270912884 1333.5965870958503 483.51030270912884L1333.5965870958503 483.51030270912884Q1320.1468786192308 483.51030270912884 1311.6802525284602 473.29036985296705Q1303.1905566118294 463.09350682266574 1303.1905566118294 446.967698546239L1303.1905566118294 446.967698546239Q1303.1905566118294 426.7123914407988 1315.0023074523592 411.41709689534684Q1326.790988467029 396.14487217575527 1342.5707493555497 396.14487217575527L1342.5707493555497 396.14487217575527Q1354.682407932265 396.14487217575527 1361.4187970835046 402.95047080457624Q1368.1551862347446 409.7560694333973 1368.1551862347446 422.05228661699596L1368.1551862347446 422.05228661699596Q1368.1551862347446 429.365421414746 1365.6636450418205 438.66256123649134L1365.6636450418205 438.66256123649134L1362.3415901179214 442.1461049414132L1320.8159035691829 445.9756960342413Q1323.6304223241527 464.75453428461526 1338.4181807006757 464.75453428461526ZM1338.4181807006757 413.26268296417965L1338.4181807006757 413.26268296417965Q1331.1050459029257 413.26268296417965 1326.121963517077 419.14548855858425Q1321.1388811312286 425.0513639788493 1320.3083674002537 434.18701501957173L1320.3083674002537 434.18701501957173L1348.5458342533962 430.7034713146498Q1349.0533704223249 426.87388022182165 1349.0533704223249 424.3823390288974L1349.0533704223249 424.3823390288974Q1349.0533704223249 413.26268296417965 1338.4181807006757 413.26268296417965ZM1379.4363310804852 401.2894433426267L1389.0795182901365 401.2894433426267L1389.0795182901365 383.1796300422047L1411.5033890264554 378.865572606308L1409.334825395577 401.2894433426267L1429.428643719994 401.2894433426267L1427.6061274770218 414.92371042612916L1408.6658004456249 414.92371042612916L1407.83528671465 449.62072852018616Q1407.83528671465 457.44139948686524 1409.334825395577 460.0021501573708Q1410.8343640765038 462.5859706537367 1414.8254439503544 462.5859706537367Q1418.8165238242054 462.5859706537367 1425.4606336720035 460.7634544107643L1425.4606336720035 460.7634544107643L1426.4526361840012 472.55213542543396Q1415.4944689003064 481.6877864661564 1407.1893315905586 481.6877864661564Q1398.8841942808108 481.6877864661564 1393.5550645070562 475.6204222648685Q1388.2490045591617 469.5530580635806 1388.2490045591617 459.77145189876666L1388.2490045591617 459.77145189876666L1389.2410070711594 441.1541024294156L1389.0795182901365 414.92371042612916L1377.613814837513 414.92371042612916L1379.4363310804852 401.2894433426267ZM1461.4957016659641 481.6877864661564L1461.4957016659641 481.6877864661564Q1452.5215394062648 481.6877864661564 1446.961711373906 475.7819110458914Q1441.401883341547 469.8991054514868 1441.401883341547 460.2559182418353L1441.401883341547 460.2559182418353L1442.3938858535448 441.1541024294156L1440.5713696105722 401.2894433426267L1462.8337515658682 397.1368746877529L1460.6651879349897 447.6367234961909Q1460.6651879349897 454.78836951291805 1463.2490084313558 458.11042443681714Q1465.809759101861 461.43247936071623 1471.4618664376617 461.43247936071623Q1477.113973773462 461.43247936071623 1487.0801385451591 455.78037202491566L1487.0801385451591 455.78037202491566L1487.0801385451591 445.81420725321846L1485.257622302187 402.1199570736015L1507.6814930385058 397.96738841872764L1505.6744181886502 439.4930749674661L1505.835906969673 453.12734205096854Q1505.835906969673 463.7394619467572 1511.3265255244505 474.53614044942924L1511.3265255244505 474.53614044942924L1494.0472259550033 482.1953226350854Q1488.579677226086 471.39864413241344 1487.4031161072053 464.91602306563817L1487.4031161072053 464.91602306563817Q1472.4538689496594 481.6877864661564 1461.4957016659641 481.6877864661564ZM1526.2757726819964 357.272215600964L1549.022620980361 353.11964694609014L1546.877127175343 438.50107245546843L1548.6996434183152 477.53521781128256L1526.2757726819964 481.6877864661564L1528.2597777059914 441.31559121043847L1526.2757726819964 357.272215600964ZM1568.3089953996637 401.2894433426267L1590.548307529099 397.1368746877529L1588.564302505104 438.50107245546843L1590.3868187480762 477.53521781128256L1568.1244367927807 481.6877864661564L1570.1315116426363 441.31559121043847L1568.3089953996637 401.2894433426267ZM1567.132434280783 372.7982084050201Q1567.132434280783 367.23838037266125 1571.4464917166797 362.8320436333229Q1575.7836189784366 358.4487767198449 1581.4126564883768 358.4487767198449Q1587.0647638241771 358.4487767198449 1590.063841186031 361.51706355927945Q1593.0398487220236 364.58535039871407 1593.0398487220236 370.72192407758314Q1593.0398487220236 376.8815675823127 1588.8180705895684 381.287904321651Q1584.573222631253 385.671171235129 1579.0133945988941 385.671171235129Q1573.4535665665353 385.671171235129 1570.2930004236591 382.02613874918416Q1567.132434280783 378.38110626323936 1567.132434280783 372.7982084050201ZM1603.8365272246956 446.967698546239Q1603.8365272246956 425.7203889288012 1615.3022306773196 410.93263055227817Q1626.7679341299436 396.14487217575527 1642.1324381529766 396.14487217575527Q1657.4969421760097 396.14487217575527 1666.0558475702219 406.1110369474525Q1674.614752964434 416.0772017191497 1674.614752964434 432.5259875576222L1674.614752964434 432.5259875576222Q1674.614752964434 454.4423221250119 1663.5643063772977 468.97631241707035Q1652.5138597901614 483.51030270912884 1635.742096389643 483.51030270912884L1635.742096389643 483.51030270912884Q1621.9463405251176 483.51030270912884 1612.902968787837 473.1288810719442Q1603.8365272246956 462.7474594347596 1603.8365272246956 446.967698546239L1603.8365272246956 446.967698546239ZM1655.9974034950828 441.1541024294156L1655.9974034950828 441.1541024294156Q1655.9974034950828 417.06920423114735 1639.5486176566105 417.06920423114735L1639.5486176566105 417.06920423114735Q1622.4538766940468 417.06920423114735 1622.4538766940468 439.65456374848895L1622.4538766940468 439.65456374848895Q1622.4538766940468 451.466314589019 1627.2754702988723 458.11042443681714Q1632.0739940778376 464.75453428461526 1639.9638745220982 464.75453428461526Q1647.8537549663583 464.75453428461526 1651.937114143651 458.6871700833274Q1655.9974034950828 452.6198058820395 1655.9974034950828 441.1541024294156Z " fill="#2c2c2c" transform="matrix(0.5225082824021043,0,0,0.5225082824021043,0,76.30398533794727)"/></g></svg>